<svg width="2000" height="2000" viewBox="0 0 2000 2000" fill="none" xmlns="http://www.w3.org/2000/svg">
<circle cx="1000" cy="1000" r="1000" fill="black"/>
<circle cx="995" cy="1000" r="876" fill="#EAEAEA"/>
<path d="M1675 667.113V1342.89C1630.66 1325.52 1574.8 1304.71 1512.45 1283.87C1361.61 1233.46 1164.41 1180 1000 1180C835.592 1180 638.389 1233.46 487.554 1283.87C425.201 1304.71 369.335 1325.52 325 1342.89V667.113C369.335 684.475 425.201 705.294 487.554 726.133C638.389 776.542 835.592 830 1000 830C1164.41 830 1361.61 776.542 1512.45 726.133C1574.8 705.294 1630.66 684.475 1675 667.113Z" stroke="black" stroke-width="150"/>
<g style="mix-blend-mode:difference">
<rect x="620" y="630" width="750" height="750" stroke="#EAEAEA" stroke-width="150"/>
</g>
</svg>
